<svg width="18" height="41" viewBox="0 0 18 41" fill="none" xmlns="http://www.w3.org/2000/svg">
  <path d="M17.3393 17.1512C17.3839 15.926 16.4992 14.6768 14.5736 13.7476V11.4744C16.8059 10.4093 17.4508 9.07397 17.3393 7.93999V5.32444C17.3319 4.17497 16.5178 3.02378 14.8952 2.15996C11.6109 0.408229 6.30253 0.399625 3.0387 2.13931C0.388232 3.55206 0.631718 5.29691 0.631718 5.29691L0.631718 7.93827C0.548078 9.04816 1.18932 10.3714 3.39742 11.4366C3.39742 11.4366 3.39742 13.899 3.39742 13.7097C1.46812 14.6303 0.585251 15.8761 0.631718 17.1013L0.631718 19.6635C0.540643 20.8715 1.33987 22.0967 3.07587 23.0225C6.36015 24.7742 11.6685 24.7828 14.9323 23.0431C16.6702 22.1156 17.4601 20.8818 17.3393 19.6635V17.1512Z" fill="#797E65"/>
  <path d="M17.3395 17.0514V19.6652C17.4603 20.8818 16.6704 22.1173 14.9326 23.0448C11.6687 24.7845 6.36036 24.7759 3.07608 23.0241C1.34008 22.0984 0.540853 20.8732 0.631928 19.6652L0.631928 17.0239C0.639362 18.1682 1.43487 19.3142 3.07608 20.1883C6.36036 21.9401 11.6687 21.9487 14.9326 20.209C16.5645 19.3383 17.3451 18.1957 17.3395 17.0514ZM17.3395 5.32441C17.3637 9.43186 8.03874 11.1096 3.07422 8.46135C1.43302 7.58548 0.637505 6.43946 0.63007 5.29688L0.63007 7.93824C0.54643 9.04813 1.18767 10.3714 3.39577 11.4365V14.5029H3.40692C3.37904 15.2876 3.91806 16.0792 5.04442 16.6797C7.23393 17.8481 10.7728 17.8533 12.9493 16.6935C14.0776 16.0912 14.6054 15.2945 14.559 14.5029H14.5757V11.4727C16.8079 10.4075 17.4529 9.07222 17.3414 7.93824L17.3395 5.32441Z" fill="#575B47"/>
  <g filter="url(#filter0_d_515_225)">
    <path d="M7.1261 24.2133L7.1261 33.7411H7.12982C7.12982 33.7411 8.98291 36.9727 8.98477 36.9761L10.8434 33.7411V28.8748C10.1204 27.1454 9.20595 25.5967 8.12421 24.2959C7.78965 24.2769 7.45694 24.2546 7.1261 24.2133Z" fill="#1E1E1E"/>
  </g>
  <path d="M8.12421 24.2958C9.20595 25.5949 10.1204 27.1453 10.8434 28.8747V24.2269C9.94942 24.3319 9.03496 24.3491 8.12421 24.2958Z" fill="black"/>
  <defs>
    <filter id="filter0_d_515_225" x="3.6261" y="23.7133" width="7.71735" height="16.7628" filterUnits="userSpaceOnUse" color-interpolation-filters="sRGB">
      <feFlood flood-opacity="0" result="BackgroundImageFix"/>
      <feColorMatrix in="SourceAlpha" type="matrix" values="0 0 0 0 0 0 0 0 0 0 0 0 0 0 0 0 0 0 127 0" result="hardAlpha"/>
      <feOffset dx="-1.5" dy="1.5"/>
      <feGaussianBlur stdDeviation="1"/>
      <feComposite in2="hardAlpha" operator="out"/>
      <feColorMatrix type="matrix" values="0 0 0 0 0 0 0 0 0 0 0 0 0 0 0 0 0 0 0.5 0"/>
      <feBlend mode="normal" in2="BackgroundImageFix" result="effect1_dropShadow_515_225"/>
      <feBlend mode="normal" in="SourceGraphic" in2="effect1_dropShadow_515_225" result="shape"/>
    </filter>
  </defs>
</svg>